<svg width="300" height="300" viewBox="0 0 300 300" fill="none" xmlns="http://www.w3.org/2000/svg">
<rect width="300" height="300" fill="#1D4573"/>
<g filter="url(#filter0_d)">
<rect x="74" y="46" width="152" height="208" fill="white"/>
<rect x="74.5" y="46.5" width="151" height="207" stroke="white"/>
</g>
<g filter="url(#filter1_d)">
<path d="M163.711 85.0391C163.711 88.3828 163.148 91.3047 162.023 93.8047C160.898 96.2891 159.305 98.1875 157.242 99.5C155.18 100.812 152.773 101.469 150.023 101.469C147.336 101.469 144.953 100.812 142.875 99.5C140.797 98.1719 139.18 96.2891 138.023 93.8516C136.883 91.3984 136.297 88.5625 136.266 85.3438V82.8828C136.266 79.6016 136.836 76.7031 137.977 74.1875C139.117 71.6719 140.727 69.75 142.805 68.4219C144.898 67.0781 147.289 66.4062 149.977 66.4062C152.711 66.4062 155.117 67.0703 157.195 68.3984C159.289 69.7109 160.898 71.625 162.023 74.1406C163.148 76.6406 163.711 79.5547 163.711 82.8828V85.0391ZM159.234 82.8359C159.234 78.7891 158.422 75.6875 156.797 73.5312C155.172 71.3594 152.898 70.2734 149.977 70.2734C147.133 70.2734 144.891 71.3594 143.25 73.5312C141.625 75.6875 140.789 78.6875 140.742 82.5312V85.0391C140.742 88.9609 141.562 92.0469 143.203 94.2969C144.859 96.5312 147.133 97.6484 150.023 97.6484C152.93 97.6484 155.18 96.5938 156.773 94.4844C158.367 92.3594 159.188 89.3203 159.234 85.3672V82.8359Z" fill="#1D4573"/>
<path d="M162.023 93.8047L162.934 94.2172L162.935 94.2151L162.023 93.8047ZM142.875 99.5L142.336 100.343L142.341 100.345L142.875 99.5ZM138.023 93.8516L137.117 94.2732L137.12 94.2801L138.023 93.8516ZM136.266 85.3438H135.266L135.266 85.3535L136.266 85.3438ZM142.805 68.4219L143.343 69.2645L143.345 69.2635L142.805 68.4219ZM157.195 68.3984L156.657 69.2411L156.664 69.2457L157.195 68.3984ZM162.023 74.1406L161.111 74.5489L161.112 74.551L162.023 74.1406ZM156.797 73.5312L155.996 74.1303L155.998 74.1331L156.797 73.5312ZM143.25 73.5312L142.452 72.9285L142.451 72.9294L143.25 73.5312ZM140.742 82.5312L139.742 82.5191V82.5312H140.742ZM143.203 94.2969L142.395 94.8861L142.4 94.8924L143.203 94.2969ZM156.773 94.4844L157.571 95.0872L157.573 95.0844L156.773 94.4844ZM159.234 85.3672L160.234 85.379V85.3672H159.234ZM162.711 85.0391C162.711 88.2717 162.167 91.0484 161.112 93.3943L162.935 94.2151C164.13 91.5609 164.711 88.4939 164.711 85.0391H162.711ZM161.112 93.3922C160.058 95.7207 158.585 97.46 156.705 98.6563L157.779 100.344C160.024 98.915 161.739 96.8574 162.934 94.2172L161.112 93.3922ZM156.705 98.6563C154.823 99.8544 152.608 100.469 150.023 100.469V102.469C152.939 102.469 155.537 101.771 157.779 100.344L156.705 98.6563ZM150.023 100.469C147.507 100.469 145.312 99.8567 143.409 98.6545L142.341 100.345C144.594 101.768 147.165 102.469 150.023 102.469V100.469ZM143.414 98.6574C141.508 97.4397 140.011 95.7075 138.927 93.423L137.12 94.2801C138.349 96.8707 140.086 98.9041 142.336 100.343L143.414 98.6574ZM138.93 93.4299C137.86 91.1281 137.296 88.4371 137.266 85.334L135.266 85.3535C135.298 88.6879 135.906 91.6688 137.117 94.2732L138.93 93.4299ZM137.266 85.3438V82.8828H135.266V85.3438H137.266ZM137.266 82.8828C137.266 79.7176 137.816 76.9643 138.887 74.6005L137.066 73.7745C135.856 76.442 135.266 79.4855 135.266 82.8828H137.266ZM138.887 74.6005C139.958 72.2392 141.447 70.4762 143.343 69.2645L142.266 67.5793C140.006 69.0238 138.276 71.1046 137.066 73.7745L138.887 74.6005ZM143.345 69.2635C145.264 68.0315 147.465 67.4062 149.977 67.4062V65.4062C147.114 65.4062 144.532 66.1248 142.265 67.5803L143.345 69.2635ZM149.977 67.4062C152.542 67.4062 154.757 68.0267 156.657 69.2411L157.734 67.5558C155.478 66.1139 152.88 65.4062 149.977 65.4062V67.4062ZM156.664 69.2457C158.571 70.441 160.057 72.1926 161.111 74.5489L162.936 73.7324C161.74 71.0574 160.007 68.9808 157.726 67.5512L156.664 69.2457ZM161.112 74.551C162.167 76.8974 162.711 79.6665 162.711 82.8828H164.711C164.711 79.4429 164.129 76.3838 162.935 73.7303L161.112 74.551ZM162.711 82.8828V85.0391H164.711V82.8828H162.711ZM160.234 82.8359C160.234 78.675 159.402 75.3265 157.595 72.9294L155.998 74.1331C157.442 76.0485 158.234 78.9032 158.234 82.8359H160.234ZM157.598 72.9322C155.767 70.4862 153.185 69.2734 149.977 69.2734V71.2734C152.612 71.2734 154.576 72.2326 155.996 74.1303L157.598 72.9322ZM149.977 69.2734C146.836 69.2734 144.291 70.4936 142.452 72.9285L144.048 74.134C145.49 72.2251 147.43 71.2734 149.977 71.2734V69.2734ZM142.451 72.9294C140.654 75.3143 139.791 78.5496 139.742 82.5191L141.742 82.5434C141.787 78.8254 142.596 76.0607 144.049 74.1331L142.451 72.9294ZM139.742 82.5312V85.0391H141.742V82.5312H139.742ZM139.742 85.0391C139.742 89.0888 140.588 92.4077 142.395 94.886L144.011 93.7077C142.537 91.686 141.742 88.8331 141.742 85.0391H139.742ZM142.4 94.8924C144.253 97.3927 146.831 98.6484 150.023 98.6484V96.6484C147.435 96.6484 145.466 95.6698 144.006 93.7014L142.4 94.8924ZM150.023 98.6484C153.207 98.6484 155.768 97.474 157.571 95.0872L155.976 93.8815C154.591 95.7135 152.652 96.6484 150.023 96.6484V98.6484ZM157.573 95.0844C159.343 92.7247 160.186 89.4459 160.234 85.379L158.234 85.3553C158.189 89.1947 157.391 91.994 155.973 93.8844L157.573 95.0844ZM160.234 85.3672V82.8359H158.234V85.3672H160.234Z" fill="black"/>
</g>
<g filter="url(#filter2_d)">
<path d="M149.766 208.789C145.906 207.68 143.094 206.32 141.328 204.711C139.578 203.086 138.703 201.086 138.703 198.711C138.703 196.023 139.773 193.805 141.914 192.055C144.07 190.289 146.867 189.406 150.305 189.406C152.648 189.406 154.734 189.859 156.562 190.766C158.406 191.672 159.828 192.922 160.828 194.516C161.844 196.109 162.352 197.852 162.352 199.742H157.828C157.828 197.68 157.172 196.062 155.859 194.891C154.547 193.703 152.695 193.109 150.305 193.109C148.086 193.109 146.352 193.602 145.102 194.586C143.867 195.555 143.25 196.906 143.25 198.641C143.25 200.031 143.836 201.211 145.008 202.18C146.195 203.133 148.203 204.008 151.031 204.805C153.875 205.602 156.094 206.484 157.688 207.453C159.297 208.406 160.484 209.523 161.25 210.805C162.031 212.086 162.422 213.594 162.422 215.328C162.422 218.094 161.344 220.312 159.188 221.984C157.031 223.641 154.148 224.469 150.539 224.469C148.195 224.469 146.008 224.023 143.977 223.133C141.945 222.227 140.375 220.992 139.266 219.43C138.172 217.867 137.625 216.094 137.625 214.109H142.148C142.148 216.172 142.906 217.805 144.422 219.008C145.953 220.195 147.992 220.789 150.539 220.789C152.914 220.789 154.734 220.305 156 219.336C157.266 218.367 157.898 217.047 157.898 215.375C157.898 213.703 157.312 212.414 156.141 211.508C154.969 210.586 152.844 209.68 149.766 208.789Z" fill="#1D4573"/>
<path d="M149.766 208.789L150.044 207.828L150.042 207.828L149.766 208.789ZM141.328 204.711L140.648 205.444L140.654 205.45L141.328 204.711ZM141.914 192.055L142.547 192.829L142.548 192.828L141.914 192.055ZM156.562 190.766L156.118 191.662L156.121 191.663L156.562 190.766ZM160.828 194.516L159.981 195.047L159.985 195.053L160.828 194.516ZM162.352 199.742V200.742H163.352V199.742H162.352ZM157.828 199.742H156.828V200.742H157.828V199.742ZM155.859 194.891L155.188 195.632L155.193 195.637L155.859 194.891ZM145.102 194.586L145.719 195.373L145.72 195.372L145.102 194.586ZM145.008 202.18L144.371 202.95L144.376 202.955L144.382 202.96L145.008 202.18ZM151.031 204.805L150.76 205.767L150.761 205.768L151.031 204.805ZM157.688 207.453L157.168 208.308L157.178 208.314L157.688 207.453ZM161.25 210.805L160.392 211.318L160.396 211.325L161.25 210.805ZM159.188 221.984L159.797 222.777L159.8 222.775L159.188 221.984ZM143.977 223.133L143.569 224.046L143.575 224.049L143.977 223.133ZM139.266 219.43L138.446 220.003L138.45 220.009L139.266 219.43ZM137.625 214.109V213.109H136.625V214.109H137.625ZM142.148 214.109H143.148V213.109H142.148V214.109ZM144.422 219.008L143.8 219.791L143.809 219.798L144.422 219.008ZM156.141 211.508L155.522 212.294L155.529 212.299L156.141 211.508ZM150.042 207.828C146.242 206.736 143.601 205.43 142.002 203.972L140.654 205.45C142.586 207.211 145.57 208.624 149.489 209.75L150.042 207.828ZM142.009 203.978C140.461 202.541 139.703 200.806 139.703 198.711H137.703C137.703 201.366 138.695 203.631 140.648 205.444L142.009 203.978ZM139.703 198.711C139.703 196.333 140.631 194.395 142.547 192.829L141.281 191.28C138.916 193.214 137.703 195.714 137.703 198.711H139.703ZM142.548 192.828C144.486 191.241 147.043 190.406 150.305 190.406V188.406C146.692 188.406 143.654 189.337 141.281 191.281L142.548 192.828ZM150.305 190.406C152.517 190.406 154.447 190.833 156.118 191.662L157.007 189.87C155.021 188.885 152.78 188.406 150.305 188.406V190.406ZM156.121 191.663C157.814 192.495 159.089 193.625 159.981 195.047L161.675 193.984C160.567 192.219 158.998 190.849 157.004 189.868L156.121 191.663ZM159.985 195.053C160.898 196.486 161.352 198.042 161.352 199.742H163.352C163.352 197.661 162.789 195.733 161.671 193.978L159.985 195.053ZM162.352 198.742H157.828V200.742H162.352V198.742ZM158.828 199.742C158.828 197.449 158.088 195.539 156.525 194.145L155.193 195.637C156.256 196.586 156.828 197.911 156.828 199.742H158.828ZM156.53 194.149C154.978 192.744 152.855 192.109 150.305 192.109V194.109C152.535 194.109 154.116 194.662 155.188 195.632L156.53 194.149ZM150.305 192.109C147.949 192.109 145.967 192.631 144.483 193.8L145.72 195.372C146.736 194.572 148.223 194.109 150.305 194.109V192.109ZM144.484 193.799C142.981 194.979 142.25 196.636 142.25 198.641H144.25C144.25 197.176 144.754 196.13 145.719 195.373L144.484 193.799ZM142.25 198.641C142.25 200.36 142.993 201.812 144.371 202.95L145.645 201.409C144.679 200.61 144.25 199.703 144.25 198.641H142.25ZM144.382 202.96C145.732 204.043 147.9 204.961 150.76 205.767L151.302 203.842C148.506 203.054 146.659 202.223 145.634 201.4L144.382 202.96ZM150.761 205.768C153.562 206.552 155.684 207.405 157.168 208.308L158.207 206.599C156.504 205.563 154.188 204.651 151.301 203.842L150.761 205.768ZM157.178 208.314C158.68 209.203 159.73 210.211 160.392 211.318L162.108 210.292C161.238 208.836 159.914 207.61 158.197 206.593L157.178 208.314ZM160.396 211.325C161.068 212.427 161.422 213.748 161.422 215.328H163.422C163.422 213.439 162.995 211.745 162.104 210.284L160.396 211.325ZM161.422 215.328C161.422 217.79 160.483 219.715 158.575 221.194L159.8 222.775C162.205 220.91 163.422 218.398 163.422 215.328H161.422ZM158.578 221.191C156.646 222.675 154 223.469 150.539 223.469V225.469C154.297 225.469 157.416 224.606 159.797 222.777L158.578 221.191ZM150.539 223.469C148.326 223.469 146.276 223.049 144.378 222.217L143.575 224.049C145.74 224.998 148.065 225.469 150.539 225.469V223.469ZM144.384 222.22C142.49 221.374 141.071 220.245 140.081 218.851L138.45 220.009C139.679 221.739 141.401 223.079 143.569 224.046L144.384 222.22ZM140.085 218.856C139.114 217.469 138.625 215.897 138.625 214.109H136.625C136.625 216.29 137.23 218.265 138.446 220.003L140.085 218.856ZM137.625 215.109H142.148V213.109H137.625V215.109ZM141.148 214.109C141.148 216.454 142.028 218.384 143.8 219.791L145.044 218.225C143.785 217.225 143.148 215.89 143.148 214.109H141.148ZM143.809 219.798C145.564 221.159 147.84 221.789 150.539 221.789V219.789C148.144 219.789 146.342 219.232 145.035 218.218L143.809 219.798ZM150.539 221.789C153.031 221.789 155.101 221.284 156.608 220.13L155.392 218.542C154.368 219.326 152.797 219.789 150.539 219.789V221.789ZM156.608 220.13C158.134 218.962 158.898 217.34 158.898 215.375H156.898C156.898 216.753 156.397 217.773 155.392 218.542L156.608 220.13ZM158.898 215.375C158.898 213.439 158.203 211.838 156.752 210.717L155.529 212.299C156.422 212.99 156.898 213.967 156.898 215.375H158.898ZM156.759 210.722C155.424 209.672 153.136 208.723 150.044 207.828L149.488 209.75C152.552 210.636 154.514 211.5 155.522 212.294L156.759 210.722Z" fill="black"/>
</g>
<g filter="url(#filter3_d)">
<path d="M140.016 155.242L140.672 159.742L141.633 155.688L148.383 131.875H152.18L158.766 155.688L159.703 159.812L160.43 155.219L165.727 131.875H170.25L161.977 166H157.875L150.844 141.133L150.305 138.531L149.766 141.133L142.477 166H138.375L130.125 131.875H134.625L140.016 155.242Z" fill="#1D4573"/>
<path d="M140.016 155.242L141.005 155.098L140.999 155.057L140.99 155.017L140.016 155.242ZM140.672 159.742L139.682 159.886L141.645 159.973L140.672 159.742ZM141.633 155.688L140.671 155.415L140.665 155.436L140.66 155.457L141.633 155.688ZM148.383 131.875V130.875H147.627L147.421 131.602L148.383 131.875ZM152.18 131.875L153.144 131.608L152.941 130.875H152.18V131.875ZM158.766 155.688L159.741 155.466L159.736 155.443L159.729 155.421L158.766 155.688ZM159.703 159.812L158.728 160.034L160.691 159.969L159.703 159.812ZM160.43 155.219L159.454 154.997L159.447 155.03L159.442 155.063L160.43 155.219ZM165.727 131.875V130.875H164.928L164.751 131.654L165.727 131.875ZM170.25 131.875L171.222 132.111L171.521 130.875H170.25V131.875ZM161.977 166V167H162.763L162.948 166.236L161.977 166ZM157.875 166L156.913 166.272L157.119 167H157.875V166ZM150.844 141.133L149.865 141.336L149.872 141.371L149.881 141.405L150.844 141.133ZM150.305 138.531L151.284 138.328H149.325L150.305 138.531ZM149.766 141.133L150.725 141.414L150.737 141.375L150.745 141.336L149.766 141.133ZM142.477 166V167H143.226L143.436 166.281L142.477 166ZM138.375 166L137.403 166.235L137.588 167H138.375V166ZM130.125 131.875V130.875H128.854L129.153 132.11L130.125 131.875ZM134.625 131.875L135.599 131.65L135.421 130.875H134.625V131.875ZM139.026 155.386L139.682 159.886L141.661 159.598L141.005 155.098L139.026 155.386ZM141.645 159.973L142.606 155.918L140.66 155.457L139.699 159.512L141.645 159.973ZM142.595 155.96L149.345 132.148L147.421 131.602L140.671 155.415L142.595 155.96ZM148.383 132.875H152.18V130.875H148.383V132.875ZM151.216 132.142L157.802 155.954L159.729 155.421L153.144 131.608L151.216 132.142ZM157.79 155.909L158.728 160.034L160.678 159.591L159.741 155.466L157.79 155.909ZM160.691 159.969L161.417 155.375L159.442 155.063L158.715 159.656L160.691 159.969ZM161.405 155.44L166.702 132.096L164.751 131.654L159.454 154.997L161.405 155.44ZM165.727 132.875H170.25V130.875H165.727V132.875ZM169.278 131.639L161.005 165.764L162.948 166.236L171.222 132.111L169.278 131.639ZM161.977 165H157.875V167H161.977V165ZM158.837 165.728L151.806 140.861L149.881 141.405L156.913 166.272L158.837 165.728ZM151.823 140.93L151.284 138.328L149.325 138.734L149.865 141.336L151.823 140.93ZM149.325 138.328L148.786 140.93L150.745 141.336L151.284 138.734L149.325 138.328ZM148.806 140.852L141.517 165.719L143.436 166.281L150.725 141.414L148.806 140.852ZM142.477 165H138.375V167H142.477V165ZM139.347 165.765L131.097 131.64L129.153 132.11L137.403 166.235L139.347 165.765ZM130.125 132.875H134.625V130.875H130.125V132.875ZM133.651 132.1L139.041 155.467L140.99 155.017L135.599 131.65L133.651 132.1Z" fill="black"/>
</g>
<g filter="url(#filter4_d)">
<path d="M64 32H110.546H236C237.657 32 239 33.3431 239 35V266C239 267.657 237.657 269 236 269H64C62.3431 269 61 267.657 61 266V35C61 33.3431 62.3431 32 64 32Z" stroke="white" stroke-width="5"/>
</g>
<defs>
<filter id="filter0_d" x="70" y="46" width="160" height="216" filterUnits="userSpaceOnUse" color-interpolation-filters="sRGB">
<feFlood flood-opacity="0" result="BackgroundImageFix"/>
<feColorMatrix in="SourceAlpha" type="matrix" values="0 0 0 0 0 0 0 0 0 0 0 0 0 0 0 0 0 0 127 0"/>
<feOffset dy="4"/>
<feGaussianBlur stdDeviation="2"/>
<feColorMatrix type="matrix" values="0 0 0 0 0 0 0 0 0 0 0 0 0 0 0 0 0 0 0.25 0"/>
<feBlend mode="normal" in2="BackgroundImageFix" result="effect1_dropShadow"/>
<feBlend mode="normal" in="SourceGraphic" in2="effect1_dropShadow" result="shape"/>
</filter>
<filter id="filter1_d" x="131.266" y="65.4062" width="37.4454" height="45.0625" filterUnits="userSpaceOnUse" color-interpolation-filters="sRGB">
<feFlood flood-opacity="0" result="BackgroundImageFix"/>
<feColorMatrix in="SourceAlpha" type="matrix" values="0 0 0 0 0 0 0 0 0 0 0 0 0 0 0 0 0 0 127 0"/>
<feOffset dy="4"/>
<feGaussianBlur stdDeviation="2"/>
<feColorMatrix type="matrix" values="0 0 0 0 0 0 0 0 0 0 0 0 0 0 0 0 0 0 0.25 0"/>
<feBlend mode="normal" in2="BackgroundImageFix" result="effect1_dropShadow"/>
<feBlend mode="normal" in="SourceGraphic" in2="effect1_dropShadow" result="shape"/>
</filter>
<filter id="filter2_d" x="132.625" y="188.406" width="34.7969" height="45.0625" filterUnits="userSpaceOnUse" color-interpolation-filters="sRGB">
<feFlood flood-opacity="0" result="BackgroundImageFix"/>
<feColorMatrix in="SourceAlpha" type="matrix" values="0 0 0 0 0 0 0 0 0 0 0 0 0 0 0 0 0 0 127 0"/>
<feOffset dy="4"/>
<feGaussianBlur stdDeviation="2"/>
<feColorMatrix type="matrix" values="0 0 0 0 0 0 0 0 0 0 0 0 0 0 0 0 0 0 0.25 0"/>
<feBlend mode="normal" in2="BackgroundImageFix" result="effect1_dropShadow"/>
<feBlend mode="normal" in="SourceGraphic" in2="effect1_dropShadow" result="shape"/>
</filter>
<filter id="filter3_d" x="124.854" y="130.875" width="50.667" height="44.125" filterUnits="userSpaceOnUse" color-interpolation-filters="sRGB">
<feFlood flood-opacity="0" result="BackgroundImageFix"/>
<feColorMatrix in="SourceAlpha" type="matrix" values="0 0 0 0 0 0 0 0 0 0 0 0 0 0 0 0 0 0 127 0"/>
<feOffset dy="4"/>
<feGaussianBlur stdDeviation="2"/>
<feColorMatrix type="matrix" values="0 0 0 0 0 0 0 0 0 0 0 0 0 0 0 0 0 0 0.25 0"/>
<feBlend mode="normal" in2="BackgroundImageFix" result="effect1_dropShadow"/>
<feBlend mode="normal" in="SourceGraphic" in2="effect1_dropShadow" result="shape"/>
</filter>
<filter id="filter4_d" x="54.5" y="29.5" width="191" height="250" filterUnits="userSpaceOnUse" color-interpolation-filters="sRGB">
<feFlood flood-opacity="0" result="BackgroundImageFix"/>
<feColorMatrix in="SourceAlpha" type="matrix" values="0 0 0 0 0 0 0 0 0 0 0 0 0 0 0 0 0 0 127 0"/>
<feOffset dy="4"/>
<feGaussianBlur stdDeviation="2"/>
<feColorMatrix type="matrix" values="0 0 0 0 0 0 0 0 0 0 0 0 0 0 0 0 0 0 0.25 0"/>
<feBlend mode="normal" in2="BackgroundImageFix" result="effect1_dropShadow"/>
<feBlend mode="normal" in="SourceGraphic" in2="effect1_dropShadow" result="shape"/>
</filter>
</defs>
</svg>
