<svg width="168" height="284" viewBox="0 0 168 284" fill="none" xmlns="http://www.w3.org/2000/svg">
<path d="M47.7539 202.238C49.056 202.238 50.1628 201.75 51.0742 200.773C51.9857 199.797 52.4414 198.69 52.4414 197.453C52.4414 196.216 51.9857 195.142 51.0742 194.23C50.1628 193.254 49.056 192.766 47.7539 192.766C46.4518 192.766 45.3125 193.254 44.3359 194.23C43.4245 195.142 42.9688 196.216 42.9688 197.453C42.9688 198.69 43.4245 199.797 44.3359 200.773C45.3125 201.75 46.4518 202.238 47.7539 202.238ZM73.8281 135.441C87.3047 127.238 94.043 116.691 94.043 103.801C94.043 93.3841 89.1927 85.2135 79.4922 79.2891C76.4323 77.4661 73.0143 75.9688 69.2383 74.7969C77.181 82.0885 81.1523 92.1471 81.1523 104.973C81.1523 117.538 78.7109 127.694 73.8281 135.441ZM62.793 197.453C62.793 199.471 62.3698 201.392 61.5234 203.215C60.7422 205.038 59.668 206.633 58.3008 208C55.3711 210.93 51.8555 212.395 47.7539 212.395C43.6523 212.395 40.1367 210.93 37.207 208C34.2773 205.07 32.8125 201.522 32.8125 197.355C32.8125 190.91 35.8724 186.385 41.9922 183.781C43.8151 183 45.7357 182.609 47.7539 182.609C51.7904 182.609 55.306 184.042 58.3008 186.906C61.2956 189.771 62.793 193.286 62.793 197.453ZM40.4297 173.234L40.2344 169.816C40.2344 164.283 41.276 159.725 43.3594 156.145C46.4844 150.676 50.2279 145.956 54.5898 141.984C56.6732 139.966 58.6914 137.915 60.6445 135.832C62.6628 133.749 64.4531 131.307 66.0156 128.508C69.3359 122.388 70.9961 114.543 70.9961 104.973C70.9961 95.8581 67.9688 88.3385 61.9141 82.4141C56.1198 76.6849 48.8932 73.8203 40.2344 73.8203C34.3099 73.8203 28.9062 76.1641 24.0234 80.8516C19.2057 85.6042 16.7969 90.7148 16.7969 96.1836C16.7969 100.09 17.3828 102.987 18.5547 104.875C19.7917 106.698 20.6706 107.837 21.1914 108.293C21.7773 108.684 22.1029 108.911 22.168 108.977C24.3164 110.409 25.3906 111.939 25.3906 113.566C25.3906 115.129 24.9023 116.431 23.9258 117.473C23.0143 118.514 22.0703 119.035 21.0938 119.035C19.4661 119.035 18.3919 118.84 17.8711 118.449C17.4154 118.059 16.6341 117.505 15.5273 116.789C14.4206 116.008 13.2161 114.771 11.9141 113.078C8.39844 108.521 6.64062 103.15 6.64062 96.9648C6.64062 90.7799 7.97526 85.5391 10.6445 81.2422C13.3789 76.9453 16.862 73.3646 21.0938 70.5C29.6224 64.8359 39.388 62.0039 50.3906 62.0039C66.2109 62.0039 79.1341 65.8776 89.1602 73.625C99.1862 81.4375 104.199 91.4961 104.199 103.801C104.199 122.095 94.0104 136.581 73.6328 147.258C70.7031 148.755 67.9036 150.155 65.2344 151.457C62.6302 152.759 60.3841 153.964 58.4961 155.07C56.6081 156.177 55.0781 157.382 53.9062 158.684C51.6927 161.158 50.5859 164.934 50.5859 170.012V172.648C50.5859 173.951 50.1302 175.122 49.2188 176.164C48.3724 177.141 47.2331 177.661 45.8008 177.727C44.4336 177.792 43.2292 177.401 42.1875 176.555C41.1458 175.643 40.5599 174.536 40.4297 173.234Z" fill="white"/>
</svg>
