<svg width="213" height="389" viewBox="0 0 213 389" fill="none" xmlns="http://www.w3.org/2000/svg">
<g clip-path="url(#clip0)">
<path d="M71.6309 303.357C73.584 303.357 75.2441 302.625 76.6113 301.16C77.9785 299.695 78.6621 298.035 78.6621 296.18C78.6621 294.324 77.9785 292.713 76.6113 291.346C75.2441 289.881 73.584 289.148 71.6309 289.148C69.6777 289.148 67.9688 289.881 66.5039 291.346C65.1367 292.713 64.4531 294.324 64.4531 296.18C64.4531 298.035 65.1367 299.695 66.5039 301.16C67.9688 302.625 69.6777 303.357 71.6309 303.357ZM110.742 203.162C130.957 190.857 141.064 175.037 141.064 155.701C141.064 140.076 133.789 127.82 119.238 118.934C114.648 116.199 109.521 113.953 103.857 112.195C115.771 123.133 121.729 138.221 121.729 157.459C121.729 176.307 118.066 191.541 110.742 203.162ZM94.1895 296.18C94.1895 299.207 93.5547 302.088 92.2852 304.822C91.1133 307.557 89.502 309.949 87.4512 312C83.0566 316.395 77.7832 318.592 71.6309 318.592C65.4785 318.592 60.2051 316.395 55.8105 312C51.416 307.605 49.2188 302.283 49.2188 296.033C49.2188 286.365 53.8086 279.578 62.9883 275.672C65.7227 274.5 68.6035 273.914 71.6309 273.914C77.6855 273.914 82.959 276.062 87.4512 280.359C91.9434 284.656 94.1895 289.93 94.1895 296.18ZM60.6445 259.852L60.3516 254.725C60.3516 246.424 61.9141 239.588 65.0391 234.217C69.7266 226.014 75.3418 218.934 81.8848 212.977C85.0098 209.949 88.0371 206.873 90.9668 203.748C93.9941 200.623 96.6797 196.961 99.0234 192.762C104.004 183.582 106.494 171.814 106.494 157.459C106.494 143.787 101.953 132.508 92.8711 123.621C84.1797 115.027 73.3398 110.73 60.3516 110.73C51.4648 110.73 43.3594 114.246 36.0352 121.277C28.8086 128.406 25.1953 136.072 25.1953 144.275C25.1953 150.135 26.0742 154.48 27.832 157.312C29.6875 160.047 31.0059 161.756 31.7871 162.439C32.666 163.025 33.1543 163.367 33.252 163.465C36.4746 165.613 38.0859 167.908 38.0859 170.35C38.0859 172.693 37.3535 174.646 35.8887 176.209C34.5215 177.771 33.1055 178.553 31.6406 178.553C29.1992 178.553 27.5879 178.26 26.8066 177.674C26.123 177.088 24.9512 176.258 23.291 175.184C21.6309 174.012 19.8242 172.156 17.8711 169.617C12.5977 162.781 9.96094 154.725 9.96094 145.447C9.96094 136.17 11.9629 128.309 15.9668 121.863C20.0684 115.418 25.293 110.047 31.6406 105.75C44.4336 97.2539 59.082 93.0059 75.5859 93.0059C99.3164 93.0059 118.701 98.8164 133.74 110.438C148.779 122.156 156.299 137.244 156.299 155.701C156.299 183.143 141.016 204.871 110.449 220.887C106.055 223.133 101.855 225.232 97.8516 227.186C93.9453 229.139 90.5762 230.945 87.7441 232.605C84.9121 234.266 82.6172 236.072 80.8594 238.025C77.5391 241.736 75.8789 247.4 75.8789 255.018V258.973C75.8789 260.926 75.1953 262.684 73.8281 264.246C72.5586 265.711 70.8496 266.492 68.7012 266.59C66.6504 266.688 64.8438 266.102 63.2812 264.832C61.7188 263.465 60.8398 261.805 60.6445 259.852Z" fill="black"/>
</g>
<defs>
<clipPath id="clip0">
<rect width="213" height="389" fill="white"/>
</clipPath>
</defs>
</svg>
